<mxfile host="app.diagrams.net" modified="2022-07-11T01:44:55.310Z" agent="5.0 (Macintosh; Intel Mac OS X 10_15_7) AppleWebKit/537.36 (KHTML, like Gecko) Chrome/103.0.0.0 Safari/537.36" etag="LLA_WbiRnwti6BrOyWo4" version="20.0.4" type="github">
  <diagram id="C5RBs43oDa-KdzZeNtuy" name="Page-1">
    <mxGraphModel dx="946" dy="614" grid="1" gridSize="10" guides="1" tooltips="1" connect="1" arrows="1" fold="1" page="1" pageScale="1" pageWidth="583" pageHeight="827" math="0" shadow="0">
      <root>
        <mxCell id="WIyWlLk6GJQsqaUBKTNV-0" />
        <mxCell id="WIyWlLk6GJQsqaUBKTNV-1" parent="WIyWlLk6GJQsqaUBKTNV-0" />
        <mxCell id="fPJMce4Pu3zrgGMbKLOY-17" style="edgeStyle=orthogonalEdgeStyle;rounded=0;orthogonalLoop=1;jettySize=auto;html=1;entryX=0.5;entryY=0;entryDx=0;entryDy=0;" edge="1" parent="WIyWlLk6GJQsqaUBKTNV-1" source="fPJMce4Pu3zrgGMbKLOY-0" target="fPJMce4Pu3zrgGMbKLOY-3">
          <mxGeometry relative="1" as="geometry" />
        </mxCell>
        <mxCell id="fPJMce4Pu3zrgGMbKLOY-0" value="Start" style="ellipse;whiteSpace=wrap;html=1;" vertex="1" parent="WIyWlLk6GJQsqaUBKTNV-1">
          <mxGeometry x="440" y="80" width="120" height="80" as="geometry" />
        </mxCell>
        <mxCell id="fPJMce4Pu3zrgGMbKLOY-19" value="" style="edgeStyle=orthogonalEdgeStyle;rounded=0;orthogonalLoop=1;jettySize=auto;html=1;" edge="1" parent="WIyWlLk6GJQsqaUBKTNV-1" source="fPJMce4Pu3zrgGMbKLOY-2" target="fPJMce4Pu3zrgGMbKLOY-4">
          <mxGeometry relative="1" as="geometry" />
        </mxCell>
        <mxCell id="fPJMce4Pu3zrgGMbKLOY-2" value="New Game" style="shape=parallelogram;perimeter=parallelogramPerimeter;whiteSpace=wrap;html=1;fixedSize=1;" vertex="1" parent="WIyWlLk6GJQsqaUBKTNV-1">
          <mxGeometry x="440" y="330" width="120" height="60" as="geometry" />
        </mxCell>
        <mxCell id="fPJMce4Pu3zrgGMbKLOY-18" value="" style="edgeStyle=orthogonalEdgeStyle;rounded=0;orthogonalLoop=1;jettySize=auto;html=1;" edge="1" parent="WIyWlLk6GJQsqaUBKTNV-1" source="fPJMce4Pu3zrgGMbKLOY-3" target="fPJMce4Pu3zrgGMbKLOY-2">
          <mxGeometry relative="1" as="geometry" />
        </mxCell>
        <mxCell id="fPJMce4Pu3zrgGMbKLOY-3" value="input money for bet" style="shape=parallelogram;perimeter=parallelogramPerimeter;whiteSpace=wrap;html=1;fixedSize=1;" vertex="1" parent="WIyWlLk6GJQsqaUBKTNV-1">
          <mxGeometry x="430" y="210" width="140" height="60" as="geometry" />
        </mxCell>
        <mxCell id="fPJMce4Pu3zrgGMbKLOY-30" value="" style="edgeStyle=orthogonalEdgeStyle;rounded=0;orthogonalLoop=1;jettySize=auto;html=1;" edge="1" parent="WIyWlLk6GJQsqaUBKTNV-1" source="fPJMce4Pu3zrgGMbKLOY-4" target="fPJMce4Pu3zrgGMbKLOY-29">
          <mxGeometry relative="1" as="geometry" />
        </mxCell>
        <mxCell id="fPJMce4Pu3zrgGMbKLOY-4" value="dealer and player receive 2 card each" style="rounded=1;whiteSpace=wrap;html=1;" vertex="1" parent="WIyWlLk6GJQsqaUBKTNV-1">
          <mxGeometry x="440" y="450" width="120" height="60" as="geometry" />
        </mxCell>
        <mxCell id="fPJMce4Pu3zrgGMbKLOY-22" value="" style="edgeStyle=orthogonalEdgeStyle;rounded=0;orthogonalLoop=1;jettySize=auto;html=1;" edge="1" parent="WIyWlLk6GJQsqaUBKTNV-1" source="fPJMce4Pu3zrgGMbKLOY-5" target="fPJMce4Pu3zrgGMbKLOY-8">
          <mxGeometry relative="1" as="geometry" />
        </mxCell>
        <mxCell id="fPJMce4Pu3zrgGMbKLOY-5" value="Hit" style="shape=parallelogram;perimeter=parallelogramPerimeter;whiteSpace=wrap;html=1;fixedSize=1;" vertex="1" parent="WIyWlLk6GJQsqaUBKTNV-1">
          <mxGeometry x="300" y="730" width="120" height="60" as="geometry" />
        </mxCell>
        <mxCell id="fPJMce4Pu3zrgGMbKLOY-6" value="Stand" style="shape=parallelogram;perimeter=parallelogramPerimeter;whiteSpace=wrap;html=1;fixedSize=1;" vertex="1" parent="WIyWlLk6GJQsqaUBKTNV-1">
          <mxGeometry x="580" y="730" width="120" height="60" as="geometry" />
        </mxCell>
        <mxCell id="fPJMce4Pu3zrgGMbKLOY-33" style="edgeStyle=orthogonalEdgeStyle;rounded=0;orthogonalLoop=1;jettySize=auto;html=1;entryX=0;entryY=0.5;entryDx=0;entryDy=0;" edge="1" parent="WIyWlLk6GJQsqaUBKTNV-1" source="fPJMce4Pu3zrgGMbKLOY-7" target="fPJMce4Pu3zrgGMbKLOY-29">
          <mxGeometry relative="1" as="geometry">
            <Array as="points">
              <mxPoint x="240" y="1000" />
              <mxPoint x="240" y="600" />
            </Array>
          </mxGeometry>
        </mxCell>
        <mxCell id="fPJMce4Pu3zrgGMbKLOY-7" value="player&#39;s point &amp;gt; 21 ?" style="rhombus;whiteSpace=wrap;html=1;" vertex="1" parent="WIyWlLk6GJQsqaUBKTNV-1">
          <mxGeometry x="280" y="960" width="160" height="80" as="geometry" />
        </mxCell>
        <mxCell id="fPJMce4Pu3zrgGMbKLOY-23" style="edgeStyle=orthogonalEdgeStyle;rounded=0;orthogonalLoop=1;jettySize=auto;html=1;entryX=0;entryY=0.5;entryDx=0;entryDy=0;" edge="1" parent="WIyWlLk6GJQsqaUBKTNV-1" source="fPJMce4Pu3zrgGMbKLOY-8" target="fPJMce4Pu3zrgGMbKLOY-6">
          <mxGeometry relative="1" as="geometry">
            <Array as="points">
              <mxPoint x="520" y="880" />
              <mxPoint x="520" y="760" />
            </Array>
          </mxGeometry>
        </mxCell>
        <mxCell id="fPJMce4Pu3zrgGMbKLOY-26" value="" style="edgeStyle=orthogonalEdgeStyle;rounded=0;orthogonalLoop=1;jettySize=auto;html=1;" edge="1" parent="WIyWlLk6GJQsqaUBKTNV-1" source="fPJMce4Pu3zrgGMbKLOY-8" target="fPJMce4Pu3zrgGMbKLOY-7">
          <mxGeometry relative="1" as="geometry" />
        </mxCell>
        <mxCell id="fPJMce4Pu3zrgGMbKLOY-8" value="player&#39;s point == 21 ?" style="rhombus;whiteSpace=wrap;html=1;" vertex="1" parent="WIyWlLk6GJQsqaUBKTNV-1">
          <mxGeometry x="280" y="840" width="160" height="80" as="geometry" />
        </mxCell>
        <mxCell id="fPJMce4Pu3zrgGMbKLOY-10" value="dealer&#39;s point &amp;gt; 21 ?" style="rhombus;whiteSpace=wrap;html=1;" vertex="1" parent="WIyWlLk6GJQsqaUBKTNV-1">
          <mxGeometry x="560" y="1440" width="160" height="80" as="geometry" />
        </mxCell>
        <mxCell id="fPJMce4Pu3zrgGMbKLOY-11" value="dealer adds up" style="rounded=1;whiteSpace=wrap;html=1;" vertex="1" parent="WIyWlLk6GJQsqaUBKTNV-1">
          <mxGeometry x="580" y="1330" width="120" height="60" as="geometry" />
        </mxCell>
        <mxCell id="fPJMce4Pu3zrgGMbKLOY-13" value="dealer&#39;s point &amp;lt;&amp;nbsp;&lt;br&gt;player&#39;s point &amp;amp;&amp;amp; dealer&#39;s point &amp;lt;&amp;nbsp;16 ?" style="rhombus;whiteSpace=wrap;html=1;" vertex="1" parent="WIyWlLk6GJQsqaUBKTNV-1">
          <mxGeometry x="560" y="1083" width="160" height="80" as="geometry" />
        </mxCell>
        <mxCell id="fPJMce4Pu3zrgGMbKLOY-24" value="yes" style="text;html=1;align=center;verticalAlign=middle;resizable=0;points=[];autosize=1;strokeColor=none;fillColor=none;" vertex="1" parent="WIyWlLk6GJQsqaUBKTNV-1">
          <mxGeometry x="430" y="877" width="40" height="30" as="geometry" />
        </mxCell>
        <mxCell id="fPJMce4Pu3zrgGMbKLOY-25" value="No" style="text;html=1;align=center;verticalAlign=middle;resizable=0;points=[];autosize=1;strokeColor=none;fillColor=none;" vertex="1" parent="WIyWlLk6GJQsqaUBKTNV-1">
          <mxGeometry x="360" y="917" width="40" height="30" as="geometry" />
        </mxCell>
        <mxCell id="fPJMce4Pu3zrgGMbKLOY-31" style="edgeStyle=orthogonalEdgeStyle;rounded=0;orthogonalLoop=1;jettySize=auto;html=1;entryX=0.5;entryY=0;entryDx=0;entryDy=0;exitX=0.5;exitY=1;exitDx=0;exitDy=0;" edge="1" parent="WIyWlLk6GJQsqaUBKTNV-1" source="fPJMce4Pu3zrgGMbKLOY-29" target="fPJMce4Pu3zrgGMbKLOY-5">
          <mxGeometry relative="1" as="geometry" />
        </mxCell>
        <mxCell id="fPJMce4Pu3zrgGMbKLOY-32" style="edgeStyle=orthogonalEdgeStyle;rounded=0;orthogonalLoop=1;jettySize=auto;html=1;entryX=0.5;entryY=0;entryDx=0;entryDy=0;exitX=0.5;exitY=1;exitDx=0;exitDy=0;" edge="1" parent="WIyWlLk6GJQsqaUBKTNV-1" source="fPJMce4Pu3zrgGMbKLOY-29" target="fPJMce4Pu3zrgGMbKLOY-6">
          <mxGeometry relative="1" as="geometry" />
        </mxCell>
        <mxCell id="fPJMce4Pu3zrgGMbKLOY-29" value="decision between hit and stand" style="rounded=0;whiteSpace=wrap;html=1;" vertex="1" parent="WIyWlLk6GJQsqaUBKTNV-1">
          <mxGeometry x="440" y="570" width="120" height="60" as="geometry" />
        </mxCell>
        <mxCell id="fPJMce4Pu3zrgGMbKLOY-34" value="No" style="text;html=1;align=center;verticalAlign=middle;resizable=0;points=[];autosize=1;strokeColor=none;fillColor=none;" vertex="1" parent="WIyWlLk6GJQsqaUBKTNV-1">
          <mxGeometry x="240" y="1000" width="40" height="30" as="geometry" />
        </mxCell>
        <mxCell id="fPJMce4Pu3zrgGMbKLOY-35" value="dealer opens a card" style="rounded=1;whiteSpace=wrap;html=1;" vertex="1" parent="WIyWlLk6GJQsqaUBKTNV-1">
          <mxGeometry x="580" y="850" width="120" height="60" as="geometry" />
        </mxCell>
        <mxCell id="fPJMce4Pu3zrgGMbKLOY-36" value="dealer&#39;s point == 21 ?" style="rhombus;whiteSpace=wrap;html=1;" vertex="1" parent="WIyWlLk6GJQsqaUBKTNV-1">
          <mxGeometry x="560" y="960" width="160" height="80" as="geometry" />
        </mxCell>
      </root>
    </mxGraphModel>
  </diagram>
</mxfile>
